<svg width="170" height="40" viewBox="0 0 170 40" fill="none" xmlns="http://www.w3.org/2000/svg">
<path d="M23.824 9.72C23.376 9.72 22.944 9.864 22.528 10.152C22.144 10.408 21.888 10.696 21.76 11.016C21.696 11.112 21.52 11.576 21.232 12.408L20.848 13.656C19.6 17.144 17.36 18.888 14.128 18.888C13.008 18.888 12 18.248 11.104 16.968C10.208 15.656 9.744 14.2 9.712 12.6C9.68 12.216 9.488 11.912 9.136 11.688C8.784 11.464 8.352 11.352 7.84 11.352C7.392 11.352 6.992 11.56 6.64 11.976C6.288 12.36 6.112 12.792 6.112 13.272V22.728L5.968 31.608C5.968 32.536 6.4 33 7.264 33C8.736 33 9.488 32.328 9.52 30.984C9.584 29.64 9.616 26.28 9.616 20.904C10.608 21.896 12.032 22.392 13.888 22.392C15.712 22.392 17.168 22.104 18.256 21.528C19.376 20.952 20.528 19.944 21.712 18.504C21.712 20.968 21.728 22.76 21.76 23.88C21.824 26.056 21.856 28.568 21.856 31.416C21.856 32.472 22.256 33 23.056 33C23.888 33 24.464 32.792 24.784 32.376C25.168 31.928 25.36 31.464 25.36 30.984C25.36 23.4 25.312 16.76 25.216 11.064C25.216 10.168 24.752 9.72 23.824 9.72ZM32.3425 31.704C32.5025 30.232 33.0465 27.8 33.9745 24.408C35.7025 24.856 37.9585 25.08 40.7425 25.08L42.4225 31.656C42.6465 32.552 43.2865 33 44.3425 33C44.7585 33 45.1105 32.872 45.3985 32.616C45.6865 32.36 45.8305 32.04 45.8305 31.656C44.9665 27.912 44.2305 24.968 43.6225 22.824C42.9825 20.552 42.1345 18.264 41.0785 15.96C40.0225 13.688 39.3345 12.296 39.0145 11.784C38.6305 11.176 38.1825 10.872 37.6705 10.872C36.6785 10.872 35.6865 11.752 34.6945 13.512C33.6065 15.4 32.6785 17.608 31.9105 20.136C30.0545 25.896 29.1265 29.736 29.1265 31.656C29.1265 32.488 29.6225 32.904 30.6145 32.904C31.6385 32.904 32.2145 32.504 32.3425 31.704ZM37.5265 15.288C38.4545 17.24 39.2545 19.432 39.9265 21.864C38.0065 21.864 36.3425 21.672 34.9345 21.288C35.6065 19.048 36.4705 17.048 37.5265 15.288ZM51.2751 31.512C51.2431 32.504 51.7071 33 52.6671 33C54.0751 33 54.7791 32.472 54.7791 31.416L54.6351 25.128C55.5951 24.456 56.5391 23.704 57.4671 22.872C58.4911 23.704 59.3391 24.568 60.0111 25.464C60.6511 26.232 61.3711 27.288 62.1711 28.632C63.1631 30.2 63.9151 31.32 64.4271 31.992C64.9711 32.632 65.4511 32.952 65.8671 32.952C66.3471 32.952 66.7471 32.792 67.0671 32.472C67.3871 32.152 67.5471 31.72 67.5471 31.176C67.5471 30.536 66.7631 29.032 65.1951 26.664C63.6271 24.168 61.9791 22.152 60.2511 20.616C64.3791 16.392 66.4431 13.512 66.4431 11.976C66.4431 11.176 65.8351 10.776 64.6191 10.776C64.0111 10.776 63.4831 11.112 63.0351 11.784C61.8191 13.608 60.5871 15.192 59.3391 16.536C58.3151 17.656 56.7151 19.112 54.5391 20.904C54.5391 16.232 54.2031 13.16 53.5311 11.688C53.2111 11.112 52.7791 10.824 52.2351 10.824C51.7871 10.824 51.3551 11 50.9391 11.352C50.5231 11.672 50.3151 11.976 50.3151 12.264C50.3151 12.712 50.3791 13.336 50.5071 14.136C50.6351 14.904 50.7951 17.176 50.9871 20.952C51.1791 24.536 51.2751 27.208 51.2751 28.968V31.512ZM72.8845 31.512C72.8525 32.504 73.3165 33 74.2765 33C75.6845 33 76.3885 32.472 76.3885 31.416L76.2445 25.128C77.2045 24.456 78.1485 23.704 79.0765 22.872C80.1005 23.704 80.9485 24.568 81.6205 25.464C82.2605 26.232 82.9805 27.288 83.7805 28.632C84.7725 30.2 85.5245 31.32 86.0365 31.992C86.5805 32.632 87.0605 32.952 87.4765 32.952C87.9565 32.952 88.3565 32.792 88.6765 32.472C88.9965 32.152 89.1565 31.72 89.1565 31.176C89.1565 30.536 88.3725 29.032 86.8045 26.664C85.2365 24.168 83.5885 22.152 81.8605 20.616C85.9885 16.392 88.0525 13.512 88.0525 11.976C88.0525 11.176 87.4445 10.776 86.2285 10.776C85.6205 10.776 85.0925 11.112 84.6445 11.784C83.4285 13.608 82.1965 15.192 80.9485 16.536C79.9245 17.656 78.3245 19.112 76.1485 20.904C76.1485 16.232 75.8125 13.16 75.1405 11.688C74.8205 11.112 74.3885 10.824 73.8445 10.824C73.3965 10.824 72.9645 11 72.5485 11.352C72.1325 11.672 71.9245 11.976 71.9245 12.264C71.9245 12.712 71.9885 13.336 72.1165 14.136C72.2445 14.904 72.4045 17.176 72.5965 20.952C72.7885 24.536 72.8845 27.208 72.8845 28.968V31.512ZM107.022 12.792C107.406 14.616 107.598 17.304 107.598 20.856C107.598 26.808 105.854 29.784 102.366 29.784C100.798 29.784 99.5019 28.888 98.4779 27.096C97.4859 25.304 96.8939 23.112 96.7019 20.52C96.6379 19.24 96.6059 18.184 96.6059 17.352C96.6059 15.592 96.6859 13.96 96.8459 12.456C96.8779 12.04 96.7659 11.704 96.5099 11.448C96.2539 11.192 95.9179 11.064 95.5019 11.064C95.0859 11.064 94.6539 11.224 94.2059 11.544C93.7579 11.832 93.5179 12.184 93.4859 12.6C93.3259 14.296 93.2459 15.816 93.2459 17.16C93.2459 20.616 93.6619 23.784 94.4939 26.664C95.0699 28.616 96.0299 30.168 97.3739 31.32C98.7499 32.44 100.414 33 102.366 33C105.118 33 107.15 32.28 108.462 30.84C109.806 29.368 110.59 27.08 110.814 23.976C110.91 23.112 110.958 21.96 110.958 20.52C110.958 17.96 110.798 15.128 110.478 12.024C110.446 11.672 110.27 11.384 109.95 11.16C109.662 10.936 109.294 10.824 108.846 10.824C108.366 10.824 107.934 10.968 107.55 11.256C107.166 11.576 106.974 11.944 106.974 12.36L107.022 12.792Z" fill="#374049"/>
<path d="M123.988 4.98142C123.988 4.98142 124.378 5.17282 124.638 4.72416C124.897 4.2755 124.963 3.57472 126.067 3C126.847 3.57472 126.782 3.70233 126.847 4.14944C126.912 4.59656 126.912 4.97988 126.847 5.17128C126.782 5.36268 126.522 5.8736 126.585 6.12932C126.648 6.38504 126.877 6.99114 126.747 7.56637C126.617 8.14161 126.423 8.20489 126.357 8.5239C126.292 8.8429 126.227 10.5038 126.292 10.8871C126.357 11.2704 126.747 11.7808 127.007 12.4199C127.268 13.0589 127.462 13.186 127.527 13.5693C127.593 13.9526 127.592 14.463 127.789 14.5268C127.986 14.5906 128.244 14.6549 128.503 14.9101C128.763 15.1653 130.258 16.5705 130.712 16.6986C131.167 16.8267 132.142 17.5285 133.441 19.9555C134.74 22.3825 135.65 25.0642 135.715 26.6608C135.781 28.2573 135.585 28.2558 135.454 28.8958C135.322 29.5359 135.128 30.5562 135.715 30.9395C136.302 31.3228 137.274 31.8976 138.639 31.8338C140.003 31.77 144.681 31.5142 148.254 32.091C151.828 32.6678 152.932 32.7295 152.996 33.1767C153.061 33.6238 152.217 33.4962 152.217 33.4962C152.217 33.4962 147.604 32.8577 145.136 32.9853C142.667 33.1129 139.613 33.2425 137.989 33.3043C136.365 33.366 135.65 33.3043 135.13 33.1129C134.61 32.9215 134.676 32.6657 133.766 32.9215C132.856 33.1772 132.791 33.6238 132.077 33.6876C131.362 33.7514 129.94 33.9248 128.049 33.8152C126.945 33.7514 126.49 33.9433 126.49 33.9433C126.49 33.9433 125.905 34.0709 125.645 33.9433C125.255 33.9433 124.346 33.9433 124.411 33.56C124.216 33.4324 124.281 33.3027 124.281 33.1129C124.281 32.923 124.476 32.6657 124.476 32.6657L124.67 32.5381L123.436 32.4105H122.396L121.877 32.2829C121.877 32.2829 121.292 32.2829 121.162 32.091C121.032 31.8991 120.772 31.3887 120.967 31.2611C121.163 31.1335 121.357 30.814 121.682 30.9416C121.812 30.7502 121.877 30.5583 122.461 30.7502C123.046 30.9421 123.436 31.0692 124.865 31.1968C126.295 31.3244 126.879 31.3249 127.012 31.1968C127.144 31.0687 126.687 30.4307 126.687 30.4307C126.687 30.4307 126.167 29.8559 126.102 29.6007C126.037 29.3455 125.84 28.7065 125.777 28.6427L125.712 28.5789L125.45 28.1956C125.45 28.1956 125.45 27.4933 125.515 27.2375C125.58 26.9818 125.45 26.2157 125.45 26.2157V25.7686L125.58 25.1301L125.45 24.4915C125.45 24.4915 125.255 24.0444 125.125 23.9168C124.995 23.7892 124.996 23.7882 124.735 23.5968C124.575 23.4762 124.442 23.3241 124.345 23.1502L124.15 22.8929L123.955 22.8291C123.955 22.8291 122.461 26.6608 122.333 26.8522C122.204 27.0436 122.071 27.4269 121.943 27.6188C121.814 27.8107 121.943 28.0021 121.878 28.1297C121.825 28.2237 121.759 28.3102 121.683 28.387C121.683 28.387 121.553 28.3232 121.488 28.5789C121.423 28.8346 121.163 29.1536 121.163 29.1536C121.163 29.1536 121.228 29.4726 121.163 29.6007C121.098 29.7288 120.902 30.1755 120.902 30.1755C120.902 30.1755 120.837 30.6221 120.772 30.814C120.707 31.0059 120.707 31.3887 120.577 31.4525C120.447 31.5163 120.382 31.772 120.382 31.772C120.323 31.8818 120.258 31.9883 120.187 32.091C120.057 32.2829 119.732 32.5381 119.732 32.6019C119.732 32.6657 119.408 32.7923 119.082 32.7923C118.755 32.7923 118.562 32.8566 118.432 32.7285C118.237 32.7285 117.522 32.7285 117.522 32.4712C117.522 32.214 117.522 31.3856 117.847 31.3218C118.172 31.258 118.367 31.3856 118.627 31.3218C118.886 31.258 118.888 31.1299 119.082 30.8747C119.275 30.6195 119.601 29.3419 119.861 28.4477C120.122 27.5535 120.836 24.1689 120.836 23.8499C120.836 23.5309 120.771 21.5511 120.511 20.912C120.251 20.273 119.731 18.8025 119.666 18.2298C119.601 17.6572 119.796 15.8671 119.991 15.5476C119.991 15.5476 119.601 15.3562 119.472 15.1648C119.342 14.9734 119.276 14.7177 119.082 14.462C118.887 14.2063 118.367 13.7597 118.172 13.5045C117.977 13.2493 117.002 11.8436 116.808 11.0137C116.677 10.4827 116.481 9.96931 116.225 9.48451L116.095 9.35691C116.095 9.35691 116.03 9.29311 115.964 9.03739C115.899 8.78168 115.703 8.59027 115.575 8.33507C115.447 8.07987 115.12 7.69655 115.12 7.69655V7.50463C115.12 7.50463 114.665 6.67471 114.536 6.61091C114.406 6.54711 114.34 6.54711 114.274 6.67471C114.221 6.7687 114.155 6.85524 114.079 6.93197V6.35725C114.079 6.35725 114.209 6.29345 113.949 6.09999C113.69 5.90653 113.559 5.78047 113.429 5.84273C113.3 5.90499 113.104 5.65133 113.104 5.65133L112.91 5.52373H112.585C112.585 5.52373 112.13 5.39561 112.195 5.07661L112 5.26801L112.13 4.69329L112.845 4.24617C112.845 4.24617 112.975 4.05477 113.169 3.98891C113.364 3.92305 113.3 4.05271 113.689 4.18031C114.079 4.30792 114.534 4.56363 114.729 4.81883C114.923 5.07403 116.028 6.09639 116.743 6.99011C117.457 7.88384 119.343 10.3139 119.605 10.7605C119.867 11.2071 119.93 11.3358 120.125 11.4634C120.319 11.591 120.255 11.6548 120.58 11.5272C120.905 11.3996 120.97 11.2699 121.034 11.08C121.099 10.8902 121.099 11.0162 121.034 10.5053C120.97 9.9944 120.97 9.803 120.904 9.61108L120.772 9.22725C120.772 9.22725 119.928 8.96999 119.993 8.33301C120.058 7.69603 119.538 7.82209 119.538 7.56689C119.538 7.31169 119.473 6.80025 119.928 6.60885C119.928 6.41693 119.863 6.22554 120.19 6.09793C120.516 5.97033 121.034 5.84067 121.034 5.58701C121.034 5.33335 120.58 4.05425 120.58 4.05425C120.58 4.05425 120.45 3.54334 120.709 3.73474C120.969 3.92614 122.009 4.43757 122.204 5.01229C122.592 5.01332 123.176 4.88572 123.988 4.98142Z" fill="#374049"/>
<circle cx="7.5" cy="11.5" r="3.5" fill="#F5A548"/>
<path d="M48 29.5C48 31.433 46.433 33 44.5 33C42.567 33 41 31.433 41 29.5C41 27.567 42.567 26 44.5 26C46.433 26 48 27.567 48 29.5Z" fill="#7CC1D0"/>
<path d="M67 11.5C67 13.433 65.433 15 63.5 15C61.567 15 60 13.433 60 11.5C60 9.567 61.567 8 63.5 8C65.433 8 67 9.567 67 11.5Z" fill="#7CC1D0"/>
<circle cx="88.5" cy="29.5" r="3.5" fill="#7CC1D0"/>
<circle cx="108.5" cy="12.5" r="3.5" fill="#F5A548"/>
</svg>
