<svg width="25" height="19" viewBox="0 0 25 19" fill="none" xmlns="http://www.w3.org/2000/svg">
<path d="M22.4544 0.658492C22.4544 0.658492 24.6739 -0.119433 24.4891 1.77165C24.4269 2.55118 23.8725 5.27953 23.4406 8.22923L21.9604 16.9677C21.9604 16.9677 21.8378 18.2508 20.7272 18.469C19.6166 18.6871 17.9533 17.6911 17.6441 17.4681C17.3971 17.3077 13.024 14.7959 11.478 13.5721C11.0462 13.2384 10.554 12.5696 11.5402 11.79L18.0137 6.22427C18.7547 5.55702 19.494 3.99796 16.4145 5.89064L7.78189 11.1837C7.78189 11.1837 6.79567 11.7403 4.93872 11.2383L0.929854 10.1251C0.929854 10.1251 -0.548594 9.29106 1.97827 8.45539C8.14795 5.83611 15.725 3.16389 22.4544 0.658492Z" fill="#424047"/>
</svg>
